# xmcd
#
# Track frame offsets: 
#        150
#        13843
#        23639
#        33091
#        43143
#        52029
#        65627
#        76859
#        86957
#
# Disc length: 1316 seconds
#
# Revision: 0
# Processed by: cddbd v1.5.2PL0 Copyright (c) Steve Scherf et al.
# Submitted via: ExactAudioCopy v0.95b3
#
DISCID=6f052209
DTITLE=The Mugwumps  - The Mugwumps 
DYEAR=1900
DGENRE=
TTITLE0=Searchin'
TTITLE1=I Don't Wanna Know
TTITLE2=I'll Remember Tonight
TTITLE3=Here It Is Another Day
TTITLE4=Do You Know What I Mean
TTITLE5=You Can't Judge A Book By The Cover
TTITLE6=Everybody's Been Talkin'
TTITLE7=Do What They Don't Say
TTITLE8=So Fine
EXTD=
EXTT0=
EXTT1=
EXTT2=
EXTT3=
EXTT4=
EXTT5=
EXTT6=
EXTT7=
EXTT8=
PLAYORDER=
